<svg width="101" height="101" viewBox="0 0 101 101" fill="none" xmlns="http://www.w3.org/2000/svg">
<path d="M50.5 0C22.7 0 0 22.7 0 50.5C0 78.3 22.7 101 50.5 101C78.3 101 101 78.3 101 50.5C101 22.7 78.3 0 50.5 0ZM50.5 6C75 6 95 26 95 50.5C95 75 75 95 50.5 95C26 95 6 75 6 50.5C6 26 26 6 50.5 6ZM50.5 17.5C48.8 17.5 47.5 18.8 47.5 20.5V45.3008C45.7 46.3008 44.5 48.3 44.5 50.5C44.5 53.8 47.2 56.5 50.5 56.5C52.7 56.5 54.6992 55.3 55.6992 53.5H70.5C72.2 53.5 73.5 52.2 73.5 50.5C73.5 48.8 72.2 47.5 70.5 47.5H55.6992C55.1992 46.6 54.4 45.8008 53.5 45.3008V20.5C53.5 18.8 52.2 17.5 50.5 17.5ZM45.5 72.5C43.8 72.5 42.5 73.8 42.5 75.5C42.5 77.2 43.8 78.5 45.5 78.5H55.5C57.2 78.5 58.5 77.2 58.5 75.5C58.5 73.8 57.2 72.5 55.5 72.5H45.5Z" fill="#46993B"/>
</svg>
